{
  "asset": {
    "generator": "Khronos glTF Blender I/O v4.2.60",
    "version": "2.0"
  },
  "scene": 0,
  "scenes": [
    {
      "name": "Scene",
      "nodes": [0, 1, 2, 3, 4, 5, 6, 7, 8, 9, 10, 11, 12, 13]
    }
  ],
  "nodes": [
    {
      "name": "Empty",
      "rotation": [0, -0.0034906514920294285, 0, 0.9999939203262329],
      "scale": [3.8074817657470703, 3.8074817657470703, 3.8074817657470703],
      "translation": [-0.42982715368270874, -0.5692393779754639, 0]
    },
    {
      "mesh": 0,
      "name": "Cube.L13",
      "scale": [0.5957772135734558, 0.5957772135734558, 1.2401623725891113],
      "translation": [
        -1.4864134788513184, 0.6474459171295166, 1.486413598060608
      ]
    },
    {
      "mesh": 1,
      "name": "Cube.L14",
      "scale": [0.6592586636543274, 0.5957772135734558, 1.2401622533798218],
      "translation": [
        -0.14060664176940918, 0.6474459171295166, 1.486413598060608
      ]
    },
    {
      "mesh": 2,
      "name": "Cube.L15",
      "scale": [0.5947217345237732, 0.5957772135734558, 1.2401622533798218],
      "translation": [1.185113549232483, 0.6474459171295166, 1.486413598060608]
    },
    {
      "mesh": 3,
      "name": "Cube.016",
      "scale": [0.5947217345237732, 0.5957772135734558, 1.2401622533798218],
      "translation": [2.4706602096557617, 0.6474459171295166, 1.486413598060608]
    },
    {
      "mesh": 4,
      "name": "Cube.018",
      "scale": [0.8186458349227905, 0.5957772135734558, 1.3646811246871948],
      "translation": [
        0.6226868033409119, 0.6474459171295166, -2.5208308696746826
      ]
    },
    {
      "mesh": 5,
      "name": "Cube.019",
      "scale": [0.8310211896896362, 0.5957772135734558, 1.3630822896957397],
      "translation": [
        2.3300535678863525, 0.6474459171295166, -2.5208308696746826
      ]
    },
    {
      "mesh": 6,
      "name": "Cube.020",
      "scale": [0.7658864259719849, 0.5957772135734558, 0.5746220946311951],
      "translation": [6.30721378326416, 0.6474459171295166, 0.662860095500946]
    },
    {
      "mesh": 7,
      "name": "Cube.021",
      "scale": [0.7658864259719849, 0.5957772135734558, 0.5746220946311951],
      "translation": [6.30721378326416, 0.6474459171295166, 1.8680603504180908]
    },
    {
      "mesh": 8,
      "name": "Cube.022",
      "scale": [0.7658863663673401, 0.5957772135734558, 1.0419671535491943],
      "translation": [6.327300548553467, 0.6474459171295166, -2.842217445373535]
    },
    {
      "mesh": 9,
      "name": "Cube.023",
      "scale": [1.1338675022125244, 0.5957772135734558, 0.7794972658157349],
      "translation": [
        4.338719844818115, 0.6474459171295166, -3.0832576751708984
      ]
    },
    {
      "mesh": 10,
      "name": "Cube.024",
      "scale": [0.9088362455368042, 0.5957772135734558, 0.7794972658157349],
      "translation": [
        -5.503748416900635, 0.6474459171295166, 3.3343873023986816
      ]
    },
    {
      "mesh": 11,
      "name": "Cube.025",
      "scale": [0.9088361859321594, 0.5957772135734558, 1.1373666524887085],
      "translation": [4.017332553863525, 0.6474459171295166, 2.9326539039611816]
    },
    {
      "mesh": 12,
      "name": "Plane.008",
      "translation": [
        3.3410532474517822, 0.07072758674621582, -0.33163946866989136
      ]
    }
  ],
  "materials": [
    {
      "doubleSided": true,
      "name": "Material.002",
      "pbrMetallicRoughness": {
        "baseColorFactor": [
          0.8000858426094055, 0.009397250600159168, 0.005573698319494724, 1
        ],
        "metallicFactor": 0,
        "roughnessFactor": 0.5
      }
    },
    {
      "doubleSided": true,
      "name": "Material.001",
      "pbrMetallicRoughness": {
        "baseColorFactor": [
          0.3998356759548187, 0.8000156879425049, 0.39278584718704224, 1
        ],
        "metallicFactor": 0,
        "roughnessFactor": 0.5
      }
    },
    {
      "doubleSided": true,
      "name": "Material.003",
      "pbrMetallicRoughness": {
        "baseColorFactor": [
          0.3094138503074646, 0.34027671813964844, 0.8002041578292847, 1
        ],
        "metallicFactor": 0,
        "roughnessFactor": 0.5
      }
    }
  ],
  "meshes": [
    {
      "name": "Cube.015",
      "primitives": [
        {
          "attributes": {
            "POSITION": 0,
            "NORMAL": 1,
            "TEXCOORD_0": 2
          },
          "indices": 3,
          "material": 0
        }
      ]
    },
    {
      "name": "Cube.016",
      "primitives": [
        {
          "attributes": {
            "POSITION": 4,
            "NORMAL": 5,
            "TEXCOORD_0": 6
          },
          "indices": 7,
          "material": 0
        }
      ]
    },
    {
      "name": "Cube.017",
      "primitives": [
        {
          "attributes": {
            "POSITION": 8,
            "NORMAL": 9,
            "TEXCOORD_0": 10
          },
          "indices": 11,
          "material": 1
        }
      ]
    },
    {
      "name": "Cube.018",
      "primitives": [
        {
          "attributes": {
            "POSITION": 12,
            "NORMAL": 13,
            "TEXCOORD_0": 14
          },
          "indices": 15,
          "material": 0
        }
      ]
    },
    {
      "name": "Cube.020",
      "primitives": [
        {
          "attributes": {
            "POSITION": 16,
            "NORMAL": 17,
            "TEXCOORD_0": 18
          },
          "indices": 15,
          "material": 1
        }
      ]
    },
    {
      "name": "Cube.021",
      "primitives": [
        {
          "attributes": {
            "POSITION": 19,
            "NORMAL": 20,
            "TEXCOORD_0": 21
          },
          "indices": 15,
          "material": 1
        }
      ]
    },
    {
      "name": "Cube.022",
      "primitives": [
        {
          "attributes": {
            "POSITION": 22,
            "NORMAL": 23,
            "TEXCOORD_0": 24
          },
          "indices": 15,
          "material": 1
        }
      ]
    },
    {
      "name": "Cube.023",
      "primitives": [
        {
          "attributes": {
            "POSITION": 25,
            "NORMAL": 26,
            "TEXCOORD_0": 27
          },
          "indices": 15,
          "material": 1
        }
      ]
    },
    {
      "name": "Cube.024",
      "primitives": [
        {
          "attributes": {
            "POSITION": 28,
            "NORMAL": 29,
            "TEXCOORD_0": 30
          },
          "indices": 15,
          "material": 1
        }
      ]
    },
    {
      "name": "Cube.025",
      "primitives": [
        {
          "attributes": {
            "POSITION": 31,
            "NORMAL": 32,
            "TEXCOORD_0": 33
          },
          "indices": 15,
          "material": 0
        }
      ]
    },
    {
      "name": "Cube.026",
      "primitives": [
        {
          "attributes": {
            "POSITION": 34,
            "NORMAL": 35,
            "TEXCOORD_0": 36
          },
          "indices": 15,
          "material": 1
        }
      ]
    },
    {
      "name": "Cube.027",
      "primitives": [
        {
          "attributes": {
            "POSITION": 37,
            "NORMAL": 38,
            "TEXCOORD_0": 39
          },
          "indices": 15,
          "material": 1
        }
      ]
    },
    {
      "name": "Plane.011",
      "primitives": [
        {
          "attributes": {
            "POSITION": 40,
            "NORMAL": 41,
            "TEXCOORD_0": 42
          },
          "indices": 43,
          "material": 2
        }
      ]
    }
  ],
  "accessors": [
    {
      "bufferView": 0,
      "componentType": 5126,
      "count": 735,
      "max": [1, 1, 1],
      "min": [-1, -1, -1.0748493671417236],
      "type": "VEC3"
    },
    {
      "bufferView": 1,
      "componentType": 5126,
      "count": 735,
      "type": "VEC3"
    },
    {
      "bufferView": 2,
      "componentType": 5126,
      "count": 735,
      "type": "VEC2"
    },
    {
      "bufferView": 3,
      "componentType": 5123,
      "count": 1368,
      "type": "SCALAR"
    },
    {
      "bufferView": 4,
      "componentType": 5126,
      "count": 731,
      "max": [1, 1, 1],
      "min": [-1, -1, -1.0748494863510132],
      "type": "VEC3"
    },
    {
      "bufferView": 5,
      "componentType": 5126,
      "count": 731,
      "type": "VEC3"
    },
    {
      "bufferView": 6,
      "componentType": 5126,
      "count": 731,
      "type": "VEC2"
    },
    {
      "bufferView": 7,
      "componentType": 5123,
      "count": 1368,
      "type": "SCALAR"
    },
    {
      "bufferView": 8,
      "componentType": 5126,
      "count": 733,
      "max": [1, 1, 1],
      "min": [-1, -1, -1.0748497247695923],
      "type": "VEC3"
    },
    {
      "bufferView": 9,
      "componentType": 5126,
      "count": 733,
      "type": "VEC3"
    },
    {
      "bufferView": 10,
      "componentType": 5126,
      "count": 733,
      "type": "VEC2"
    },
    {
      "bufferView": 11,
      "componentType": 5123,
      "count": 1368,
      "type": "SCALAR"
    },
    {
      "bufferView": 12,
      "componentType": 5126,
      "count": 24,
      "max": [1, 1, 1],
      "min": [-1, -1, -1],
      "type": "VEC3"
    },
    {
      "bufferView": 13,
      "componentType": 5126,
      "count": 24,
      "type": "VEC3"
    },
    {
      "bufferView": 14,
      "componentType": 5126,
      "count": 24,
      "type": "VEC2"
    },
    {
      "bufferView": 15,
      "componentType": 5123,
      "count": 36,
      "type": "SCALAR"
    },
    {
      "bufferView": 16,
      "componentType": 5126,
      "count": 24,
      "max": [1, 1, 1],
      "min": [-1, -1, -1],
      "type": "VEC3"
    },
    {
      "bufferView": 17,
      "componentType": 5126,
      "count": 24,
      "type": "VEC3"
    },
    {
      "bufferView": 18,
      "componentType": 5126,
      "count": 24,
      "type": "VEC2"
    },
    {
      "bufferView": 19,
      "componentType": 5126,
      "count": 24,
      "max": [1, 1, 1],
      "min": [-1, -1, -1],
      "type": "VEC3"
    },
    {
      "bufferView": 20,
      "componentType": 5126,
      "count": 24,
      "type": "VEC3"
    },
    {
      "bufferView": 21,
      "componentType": 5126,
      "count": 24,
      "type": "VEC2"
    },
    {
      "bufferView": 22,
      "componentType": 5126,
      "count": 24,
      "max": [1, 1, 1],
      "min": [-1, -1, -1],
      "type": "VEC3"
    },
    {
      "bufferView": 23,
      "componentType": 5126,
      "count": 24,
      "type": "VEC3"
    },
    {
      "bufferView": 24,
      "componentType": 5126,
      "count": 24,
      "type": "VEC2"
    },
    {
      "bufferView": 25,
      "componentType": 5126,
      "count": 24,
      "max": [1, 1, 1],
      "min": [-1, -1, -1],
      "type": "VEC3"
    },
    {
      "bufferView": 26,
      "componentType": 5126,
      "count": 24,
      "type": "VEC3"
    },
    {
      "bufferView": 27,
      "componentType": 5126,
      "count": 24,
      "type": "VEC2"
    },
    {
      "bufferView": 28,
      "componentType": 5126,
      "count": 24,
      "max": [1, 1, 1],
      "min": [-1, -1, -1],
      "type": "VEC3"
    },
    {
      "bufferView": 29,
      "componentType": 5126,
      "count": 24,
      "type": "VEC3"
    },
    {
      "bufferView": 30,
      "componentType": 5126,
      "count": 24,
      "type": "VEC2"
    },
    {
      "bufferView": 31,
      "componentType": 5126,
      "count": 24,
      "max": [1, 1, 1],
      "min": [-1, -1, -1],
      "type": "VEC3"
    },
    {
      "bufferView": 32,
      "componentType": 5126,
      "count": 24,
      "type": "VEC3"
    },
    {
      "bufferView": 33,
      "componentType": 5126,
      "count": 24,
      "type": "VEC2"
    },
    {
      "bufferView": 34,
      "componentType": 5126,
      "count": 24,
      "max": [1, 1, 1],
      "min": [-1, -1, -1],
      "type": "VEC3"
    },
    {
      "bufferView": 35,
      "componentType": 5126,
      "count": 24,
      "type": "VEC3"
    },
    {
      "bufferView": 36,
      "componentType": 5126,
      "count": 24,
      "type": "VEC2"
    },
    {
      "bufferView": 37,
      "componentType": 5126,
      "count": 24,
      "max": [1, 1, 1],
      "min": [-1, -1, -1],
      "type": "VEC3"
    },
    {
      "bufferView": 38,
      "componentType": 5126,
      "count": 24,
      "type": "VEC3"
    },
    {
      "bufferView": 39,
      "componentType": 5126,
      "count": 24,
      "type": "VEC2"
    },
    {
      "bufferView": 40,
      "componentType": 5126,
      "count": 172,
      "max": [3.908834457397461, 0.02827906608581543, 4.453481197357178],
      "min": [-9.91773796081543, -0.025364458560943604, -3.6876301765441895],
      "type": "VEC3"
    },
    {
      "bufferView": 41,
      "componentType": 5126,
      "count": 172,
      "type": "VEC3"
    },
    {
      "bufferView": 42,
      "componentType": 5126,
      "count": 172,
      "type": "VEC2"
    },
    {
      "bufferView": 43,
      "componentType": 5123,
      "count": 246,
      "type": "SCALAR"
    }
  ],
  "bufferViews": [
    {
      "buffer": 0,
      "byteLength": 8820,
      "byteOffset": 0,
      "target": 34962
    },
    {
      "buffer": 0,
      "byteLength": 8820,
      "byteOffset": 8820,
      "target": 34962
    },
    {
      "buffer": 0,
      "byteLength": 5880,
      "byteOffset": 17640,
      "target": 34962
    },
    {
      "buffer": 0,
      "byteLength": 2736,
      "byteOffset": 23520,
      "target": 34963
    },
    {
      "buffer": 0,
      "byteLength": 8772,
      "byteOffset": 26256,
      "target": 34962
    },
    {
      "buffer": 0,
      "byteLength": 8772,
      "byteOffset": 35028,
      "target": 34962
    },
    {
      "buffer": 0,
      "byteLength": 5848,
      "byteOffset": 43800,
      "target": 34962
    },
    {
      "buffer": 0,
      "byteLength": 2736,
      "byteOffset": 49648,
      "target": 34963
    },
    {
      "buffer": 0,
      "byteLength": 8796,
      "byteOffset": 52384,
      "target": 34962
    },
    {
      "buffer": 0,
      "byteLength": 8796,
      "byteOffset": 61180,
      "target": 34962
    },
    {
      "buffer": 0,
      "byteLength": 5864,
      "byteOffset": 69976,
      "target": 34962
    },
    {
      "buffer": 0,
      "byteLength": 2736,
      "byteOffset": 75840,
      "target": 34963
    },
    {
      "buffer": 0,
      "byteLength": 288,
      "byteOffset": 78576,
      "target": 34962
    },
    {
      "buffer": 0,
      "byteLength": 288,
      "byteOffset": 78864,
      "target": 34962
    },
    {
      "buffer": 0,
      "byteLength": 192,
      "byteOffset": 79152,
      "target": 34962
    },
    {
      "buffer": 0,
      "byteLength": 72,
      "byteOffset": 79344,
      "target": 34963
    },
    {
      "buffer": 0,
      "byteLength": 288,
      "byteOffset": 79416,
      "target": 34962
    },
    {
      "buffer": 0,
      "byteLength": 288,
      "byteOffset": 79704,
      "target": 34962
    },
    {
      "buffer": 0,
      "byteLength": 192,
      "byteOffset": 79992,
      "target": 34962
    },
    {
      "buffer": 0,
      "byteLength": 288,
      "byteOffset": 80184,
      "target": 34962
    },
    {
      "buffer": 0,
      "byteLength": 288,
      "byteOffset": 80472,
      "target": 34962
    },
    {
      "buffer": 0,
      "byteLength": 192,
      "byteOffset": 80760,
      "target": 34962
    },
    {
      "buffer": 0,
      "byteLength": 288,
      "byteOffset": 80952,
      "target": 34962
    },
    {
      "buffer": 0,
      "byteLength": 288,
      "byteOffset": 81240,
      "target": 34962
    },
    {
      "buffer": 0,
      "byteLength": 192,
      "byteOffset": 81528,
      "target": 34962
    },
    {
      "buffer": 0,
      "byteLength": 288,
      "byteOffset": 81720,
      "target": 34962
    },
    {
      "buffer": 0,
      "byteLength": 288,
      "byteOffset": 82008,
      "target": 34962
    },
    {
      "buffer": 0,
      "byteLength": 192,
      "byteOffset": 82296,
      "target": 34962
    },
    {
      "buffer": 0,
      "byteLength": 288,
      "byteOffset": 82488,
      "target": 34962
    },
    {
      "buffer": 0,
      "byteLength": 288,
      "byteOffset": 82776,
      "target": 34962
    },
    {
      "buffer": 0,
      "byteLength": 192,
      "byteOffset": 83064,
      "target": 34962
    },
    {
      "buffer": 0,
      "byteLength": 288,
      "byteOffset": 83256,
      "target": 34962
    },
    {
      "buffer": 0,
      "byteLength": 288,
      "byteOffset": 83544,
      "target": 34962
    },
    {
      "buffer": 0,
      "byteLength": 192,
      "byteOffset": 83832,
      "target": 34962
    },
    {
      "buffer": 0,
      "byteLength": 288,
      "byteOffset": 84024,
      "target": 34962
    },
    {
      "buffer": 0,
      "byteLength": 288,
      "byteOffset": 84312,
      "target": 34962
    },
    {
      "buffer": 0,
      "byteLength": 192,
      "byteOffset": 84600,
      "target": 34962
    },
    {
      "buffer": 0,
      "byteLength": 288,
      "byteOffset": 84792,
      "target": 34962
    },
    {
      "buffer": 0,
      "byteLength": 288,
      "byteOffset": 85080,
      "target": 34962
    },
    {
      "buffer": 0,
      "byteLength": 192,
      "byteOffset": 85368,
      "target": 34962
    },
    {
      "buffer": 0,
      "byteLength": 2064,
      "byteOffset": 85560,
      "target": 34962
    },
    {
      "buffer": 0,
      "byteLength": 2064,
      "byteOffset": 87624,
      "target": 34962
    },
    {
      "buffer": 0,
      "byteLength": 1376,
      "byteOffset": 89688,
      "target": 34962
    },
    {
      "buffer": 0,
      "byteLength": 492,
      "byteOffset": 91064,
      "target": 34963
    }
  ],
  "buffers": [
    {
      "byteLength": 91556,
      "uri": "leclerc3d.bin"
    }
  ]
}
